<?xml version="1.0" encoding="UTF-8"?>
<svg xmlns="http://www.w3.org/2000/svg" viewBox="0 0 175.216 175.552">
  <defs>
    <linearGradient id="a" x1="85.915" x2="86.535" y1="32.567" y2="137.092" gradientUnits="userSpaceOnUse">
      <stop offset="0" stop-color="#57d163"/>
      <stop offset="1" stop-color="#23b33a"/>
    </linearGradient>
  </defs>
  <path fill="#fff" d="M87.5 175.5c48.5 0 88-39.5 88-88s-39.5-88-88-88-88 39.5-88 88 39.5 88 88 88z"/>
  <path fill="url(#a)" d="M87.6 30.2c-31.5 0-57 25.6-57 57 0 12.3 3.9 23.9 11.3 33.4l-12 35.2 36-11.9c9.1 6.5 19.9 10 31.1 10 31.5 0 57.1-25.6 57.1-57 .1-15.2-5.9-29.5-16.6-40.3-10.7-10.8-25-16.8-40.2-16.8l.3.4zm0 104.2c-9.6 0-18.9-2.9-26.9-8.3l-2-1.2-20.5 6.7 6.8-20-1.4-2.2c-5.9-8.2-8.9-18-8.9-28.1 0-26.2 21.2-47.5 47.4-47.5 12.7 0 24.6 4.9 33.5 13.9 8.9 9 13.8 20.9 13.8 33.5.1 26.2-21.3 47.5-47.3 47.5h-.1c-8.5 0-16.9-2.3-24.2-6.5l-1.7-1z"/>
  <path fill="#fff" d="M72.6 56.1c-1.1-2.3-2.2-2.4-3.2-2.4-1.7-.1-2.8-.1-4.1-.1s-3 .4-4.6 2.1c-1.6 1.7-6.1 6-6.1 14.6s6.2 16.9 7.1 18.1c.9 1.2 12.1 19.4 29.9 26.4 14.8 5.8 17.8 4.7 21 4.4s10.4-4.2 11.8-8.3c1.4-4.1 1.4-7.7 1-8.4-.4-.7-1.6-1.2-3.2-2.1s-10.4-5.1-12-5.7c-1.6-.6-2.8-.9-3.9.9-1.2 1.8-4.5 5.7-5.5 6.9-1 1.2-2 1.3-3.7.4-1.7-.9-7-2.6-13.4-8.2-5-4.4-8.3-9.9-9.3-11.6-1-1.7-.1-2.6.7-3.5.8-.8 1.7-2 2.5-3 .8-1 1.1-1.7 1.6-2.9.5-1.2.3-2.3-.1-3.2-.4-.9-3.9-9.8-5.5-13.4z"/>
</svg>
